<svg xmlns="http://www.w3.org/2000/svg" width="720" height="520" viewBox="0 0 720 520" fill="none">
  <rect x="60" y="40" width="600" height="440" rx="32" fill="white" stroke="#E5E7EB" stroke-width="2"/>
  <circle cx="360" cy="260" r="150" fill="#EEF2FF" stroke="#4338CA" stroke-width="6"/>
  <path d="M248 250c28-22 62-34 100-34 38 0 72 12 100 34" stroke="#4338CA" stroke-width="6" stroke-linecap="round"/>
  <path d="M260 290c30 24 64 36 100 36s70-12 100-36" stroke="#6366F1" stroke-width="6" stroke-linecap="round"/>
  <path d="M360 110c-10 42-10 80 0 120" stroke="#4338CA" stroke-width="6" stroke-linecap="round"/>
  <path d="M310 124c-8 34-6 66 6 96" stroke="#6366F1" stroke-width="6" stroke-linecap="round"/>
  <path d="M410 124c8 34 6 66-6 96" stroke="#6366F1" stroke-width="6" stroke-linecap="round"/>
  <circle cx="360" cy="260" r="150" stroke="#A5B4FC" stroke-width="6" stroke-dasharray="6 12"/>
  <path d="M265 180c24 20 54 30 95 30 41 0 71-10 95-30" stroke="#6366F1" stroke-width="4" stroke-linecap="round" stroke-dasharray="6 10"/>
  <path d="M265 340c24-20 54-30 95-30 41 0 71 10 95 30" stroke="#6366F1" stroke-width="4" stroke-linecap="round" stroke-dasharray="6 10"/>
  <path d="M170 150c40 26 80 26 120 0" stroke="#60A5FA" stroke-width="5" stroke-linecap="round" stroke-dasharray="10 14"/>
  <path d="M430 370c40 26 80 26 120 0" stroke="#60A5FA" stroke-width="5" stroke-linecap="round" stroke-dasharray="10 14"/>
  <path d="M170 370c40-26 80-26 120 0" stroke="#60A5FA" stroke-width="5" stroke-linecap="round" stroke-dasharray="10 14"/>
  <path d="M430 150c40-26 80-26 120 0" stroke="#60A5FA" stroke-width="5" stroke-linecap="round" stroke-dasharray="10 14"/>
  <path d="M360 260l-148-80" stroke="#22D3EE" stroke-width="6" stroke-linecap="round" stroke-dasharray="12 12"/>
  <path d="M360 260l148-80" stroke="#22D3EE" stroke-width="6" stroke-linecap="round" stroke-dasharray="12 12"/>
  <path d="M360 260l-148 80" stroke="#22D3EE" stroke-width="6" stroke-linecap="round" stroke-dasharray="12 12"/>
  <path d="M360 260l148 80" stroke="#22D3EE" stroke-width="6" stroke-linecap="round" stroke-dasharray="12 12"/>
  <circle cx="212" cy="180" r="38" fill="white" stroke="#4338CA" stroke-width="4"/>
  <rect x="192" y="180" width="40" height="26" rx="6" fill="#E0E7FF" stroke="#4338CA" stroke-width="3"/>
  <path d="M202 170c0-12 9-22 20-22s20 10 20 22" stroke="#4338CA" stroke-width="3" stroke-linecap="round"/>
  <circle cx="508" cy="180" r="38" fill="white" stroke="#4338CA" stroke-width="4"/>
  <rect x="488" y="180" width="40" height="26" rx="6" fill="#E0E7FF" stroke="#4338CA" stroke-width="3"/>
  <path d="M498 170c0-12 9-22 20-22s20 10 20 22" stroke="#4338CA" stroke-width="3" stroke-linecap="round"/>
  <circle cx="212" cy="340" r="38" fill="white" stroke="#4338CA" stroke-width="4"/>
  <rect x="192" y="340" width="40" height="26" rx="6" fill="#E0E7FF" stroke="#4338CA" stroke-width="3"/>
  <path d="M202 330c0-12 9-22 20-22s20 10 20 22" stroke="#4338CA" stroke-width="3" stroke-linecap="round"/>
  <circle cx="508" cy="340" r="38" fill="white" stroke="#4338CA" stroke-width="4"/>
  <rect x="488" y="340" width="40" height="26" rx="6" fill="#E0E7FF" stroke="#4338CA" stroke-width="3"/>
  <path d="M498 330c0-12 9-22 20-22s20 10 20 22" stroke="#4338CA" stroke-width="3" stroke-linecap="round"/>
  <circle cx="360" cy="80" r="32" fill="#EEF2FF" stroke="#4338CA" stroke-width="4"/>
  <rect x="336" y="82" width="48" height="26" rx="6" fill="#E0E7FF" stroke="#4338CA" stroke-width="3"/>
  <path d="M348 74c0-11 8-20 18-20s18 9 18 20" stroke="#4338CA" stroke-width="3" stroke-linecap="round"/>
  <circle cx="360" cy="440" r="32" fill="#EEF2FF" stroke="#4338CA" stroke-width="4"/>
  <rect x="336" y="442" width="48" height="26" rx="6" fill="#E0E7FF" stroke="#4338CA" stroke-width="3"/>
  <path d="M348 434c0-11 8-20 18-20s18 9 18 20" stroke="#4338CA" stroke-width="3" stroke-linecap="round"/>
</svg>
